# xmcd CD database file
#
# Track frame offsets:
#        187
#        15377
#        33555
#        49255
#        70180
#        95060
#        111822
#        131490
#        148177
#        178112
#
# Disc length: 2611 seconds
#
# Revision: 0
# Processed by: cddbd v1.5.2PL0 Copyright (c) Steve Scherf et al.
# Submitted via: CUERipper 2.1.5
#
DISCID=8e0a310a
DTITLE=Paul Butterfield's Better Days - It All Comes Back
DYEAR=1973
DGENRE=Blues
TTITLE0=Too Many Drivers
TTITLE1=It's Getting Harder To Survive
TTITLE2=If You Live
TTITLE3=Win Or Lose
TTITLE4=Small Town Talk
TTITLE5=Take Your Pleasure Where You Find It
TTITLE6=Poor Boy
TTITLE7=Louisiana Flood
TTITLE8=It All Comes Back
TTITLE9=Keep Lovin' Me Baby (Bonus Track)
EXTD=
EXTT0=
EXTT1=
EXTT2=
EXTT3=
EXTT4=
EXTT5=
EXTT6=
EXTT7=
EXTT8=
EXTT9=
PLAYORDER=
